<svg id="visual" viewBox="0 0 900 600" width="900" height="600" xmlns="http://www.w3.org/2000/svg" xmlns:xlink="http://www.w3.org/1999/xlink" version="1.1"><rect x="0" y="0" width="900" height="600" fill="#FFFFFF"></rect><path d="M0 117L12.5 118.5C25 120 50 123 75 123.7C100 124.3 125 122.7 150 120C175 117.3 200 113.7 225 115.2C250 116.7 275 123.3 300 126.5C325 129.7 350 129.3 375 126.2C400 123 425 117 450 115.8C475 114.7 500 118.3 525 121C550 123.7 575 125.3 600 123.3C625 121.3 650 115.7 675 116.2C700 116.7 725 123.3 750 123C775 122.7 800 115.3 825 113.2C850 111 875 114 887.5 115.5L900 117L900 0L887.5 0C875 0 850 0 825 0C800 0 775 0 750 0C725 0 700 0 675 0C650 0 625 0 600 0C575 0 550 0 525 0C500 0 475 0 450 0C425 0 400 0 375 0C350 0 325 0 300 0C275 0 250 0 225 0C200 0 175 0 150 0C125 0 100 0 75 0C50 0 25 0 12.5 0L0 0Z" fill="#0066FF" stroke-linecap="round" stroke-linejoin="miter"></path></svg>