<svg id="visual" viewBox="0 0 800 450" width="800" height="450" xmlns="http://www.w3.org/2000/svg" xmlns:xlink="http://www.w3.org/1999/xlink" version="1.1"><rect x="0" y="0" width="800" height="450" fill="#000621"></rect><path d="M0 350L19 351.3C38 352.7 76 355.3 114.2 361.5C152.3 367.7 190.7 377.3 228.8 383.8C267 390.3 305 393.7 343 387.3C381 381 419 365 457 357.3C495 349.7 533 350.3 571.2 358.3C609.3 366.3 647.7 381.7 685.8 384.7C724 387.7 762 378.3 781 373.7L800 369L800 451L781 451C762 451 724 451 685.8 451C647.7 451 609.3 451 571.2 451C533 451 495 451 457 451C419 451 381 451 343 451C305 451 267 451 228.8 451C190.7 451 152.3 451 114.2 451C76 451 38 451 19 451L0 451Z" fill="#0066FF" stroke-linecap="round" stroke-linejoin="miter"></path></svg>